<?xml version="1.0" encoding="UTF-8"?>
<svg xmlns="http://www.w3.org/2000/svg" version="1.1" width="300" height="300" viewBox="0 0 300 300"><rect x="0" y="0" width="300" height="300" fill="#ffffff"/><g transform="scale(8.571)"><g transform="translate(1,1)"><path fill-rule="evenodd" d="M9 0L9 1L8 1L8 2L9 2L9 3L8 3L8 4L10 4L10 7L11 7L11 4L12 4L12 5L13 5L13 6L12 6L12 9L13 9L13 8L14 8L14 9L15 9L15 10L17 10L17 9L19 9L19 10L18 10L18 11L19 11L19 10L20 10L20 11L21 11L21 12L22 12L22 13L20 13L20 12L17 12L17 11L16 11L16 13L12 13L12 11L13 11L13 10L11 10L11 11L10 11L10 9L11 9L11 8L6 8L6 9L5 9L5 8L0 8L0 9L1 9L1 11L2 11L2 12L3 12L3 10L4 10L4 11L5 11L5 12L4 12L4 15L2 15L2 13L1 13L1 14L0 14L0 18L1 18L1 16L4 16L4 17L5 17L5 15L7 15L7 16L6 16L6 17L7 17L7 18L5 18L5 21L7 21L7 20L8 20L8 21L10 21L10 20L9 20L9 18L10 18L10 19L11 19L11 21L12 21L12 22L13 22L13 23L12 23L12 25L13 25L13 24L14 24L14 25L15 25L15 27L14 27L14 28L15 28L15 29L12 29L12 27L13 27L13 26L11 26L11 23L10 23L10 22L9 22L9 23L8 23L8 22L6 22L6 23L8 23L8 27L9 27L9 28L8 28L8 33L11 33L11 32L9 32L9 30L10 30L10 31L11 31L11 29L12 29L12 30L13 30L13 31L12 31L12 33L13 33L13 32L14 32L14 33L17 33L17 31L16 31L16 30L15 30L15 29L17 29L17 28L15 28L15 27L17 27L17 26L18 26L18 28L20 28L20 31L19 31L19 29L18 29L18 31L19 31L19 33L20 33L20 32L24 32L24 33L25 33L25 32L24 32L24 31L27 31L27 32L28 32L28 33L29 33L29 31L30 31L30 32L31 32L31 33L32 33L32 32L31 32L31 31L30 31L30 30L33 30L33 29L32 29L32 28L33 28L33 27L32 27L32 26L33 26L33 24L32 24L32 26L31 26L31 25L30 25L30 24L31 24L31 23L32 23L32 22L33 22L33 21L32 21L32 20L31 20L31 19L32 19L32 18L33 18L33 17L32 17L32 16L31 16L31 15L32 15L32 14L33 14L33 13L31 13L31 15L30 15L30 13L29 13L29 10L28 10L28 8L27 8L27 9L26 9L26 8L25 8L25 6L24 6L24 7L23 7L23 6L22 6L22 7L21 7L21 5L24 5L24 4L25 4L25 1L24 1L24 0L23 0L23 1L22 1L22 0L21 0L21 3L20 3L20 2L18 2L18 1L17 1L17 0L15 0L15 1L17 1L17 2L16 2L16 4L12 4L12 2L13 2L13 1L11 1L11 2L10 2L10 0ZM19 0L19 1L20 1L20 0ZM23 1L23 3L24 3L24 1ZM14 2L14 3L15 3L15 2ZM17 2L17 3L18 3L18 2ZM10 3L10 4L11 4L11 3ZM19 3L19 4L16 4L16 5L17 5L17 7L16 7L16 6L15 6L15 7L14 7L14 6L13 6L13 7L14 7L14 8L15 8L15 7L16 7L16 9L17 9L17 8L18 8L18 5L19 5L19 8L20 8L20 10L21 10L21 11L22 11L22 10L23 10L23 13L24 13L24 14L23 14L23 15L22 15L22 16L21 16L21 14L20 14L20 13L16 13L16 14L19 14L19 15L20 15L20 16L19 16L19 17L17 17L17 16L18 16L18 15L16 15L16 17L17 17L17 18L15 18L15 17L14 17L14 16L15 16L15 15L14 15L14 16L13 16L13 17L12 17L12 15L13 15L13 14L12 14L12 13L11 13L11 12L10 12L10 13L9 13L9 9L8 9L8 13L6 13L6 14L8 14L8 15L9 15L9 16L10 16L10 18L13 18L13 19L12 19L12 21L16 21L16 22L17 22L17 23L16 23L16 24L17 24L17 25L19 25L19 27L20 27L20 28L21 28L21 29L22 29L22 30L23 30L23 31L24 31L24 27L23 27L23 26L24 26L24 25L22 25L22 24L21 24L21 23L20 23L20 21L22 21L22 23L24 23L24 24L27 24L27 22L25 22L25 21L27 21L27 20L28 20L28 19L26 19L26 18L25 18L25 17L28 17L28 18L29 18L29 17L30 17L30 19L29 19L29 20L30 20L30 21L28 21L28 24L30 24L30 23L29 23L29 22L30 22L30 21L31 21L31 20L30 20L30 19L31 19L31 16L30 16L30 15L29 15L29 13L28 13L28 16L26 16L26 14L25 14L25 13L27 13L27 12L28 12L28 11L27 11L27 10L25 10L25 9L24 9L24 8L20 8L20 5L21 5L21 4L22 4L22 3L21 3L21 4L20 4L20 3ZM19 4L19 5L20 5L20 4ZM8 5L8 7L9 7L9 5ZM29 8L29 9L30 9L30 8ZM31 8L31 10L33 10L33 9L32 9L32 8ZM2 9L2 10L3 10L3 9ZM6 9L6 10L5 10L5 11L6 11L6 12L7 12L7 11L6 11L6 10L7 10L7 9ZM23 9L23 10L24 10L24 11L25 11L25 12L26 12L26 11L25 11L25 10L24 10L24 9ZM14 11L14 12L15 12L15 11ZM30 11L30 12L31 12L31 11ZM10 13L10 14L9 14L9 15L10 15L10 14L11 14L11 13ZM24 15L24 17L23 17L23 16L22 16L22 17L21 17L21 16L20 16L20 19L19 19L19 18L18 18L18 20L17 20L17 19L16 19L16 20L17 20L17 22L19 22L19 20L22 20L22 21L23 21L23 22L24 22L24 21L25 21L25 18L24 18L24 17L25 17L25 15ZM7 16L7 17L8 17L8 18L9 18L9 17L8 17L8 16ZM28 16L28 17L29 17L29 16ZM2 18L2 19L3 19L3 20L2 20L2 22L4 22L4 23L3 23L3 24L2 24L2 25L5 25L5 24L4 24L4 23L5 23L5 22L4 22L4 18ZM21 18L21 19L22 19L22 20L23 20L23 21L24 21L24 20L23 20L23 19L24 19L24 18ZM6 19L6 20L7 20L7 19ZM14 19L14 20L15 20L15 19ZM0 21L0 25L1 25L1 21ZM14 23L14 24L15 24L15 23ZM6 24L6 25L7 25L7 24ZM20 25L20 27L21 27L21 28L22 28L22 29L23 29L23 27L21 27L21 26L22 26L22 25ZM25 25L25 28L28 28L28 25ZM29 25L29 28L30 28L30 29L31 29L31 28L32 28L32 27L31 27L31 26L30 26L30 25ZM9 26L9 27L11 27L11 26ZM26 26L26 27L27 27L27 26ZM30 27L30 28L31 28L31 27ZM25 29L25 30L28 30L28 31L29 31L29 30L28 30L28 29ZM14 31L14 32L15 32L15 31ZM0 0L0 7L7 7L7 0ZM1 1L1 6L6 6L6 1ZM2 2L2 5L5 5L5 2ZM26 0L26 7L33 7L33 0ZM27 1L27 6L32 6L32 1ZM28 2L28 5L31 5L31 2ZM0 26L0 33L7 33L7 26ZM1 27L1 32L6 32L6 27ZM2 28L2 31L5 31L5 28Z" fill="#198754"/></g></g></svg>
