<?xml version="1.0" encoding="UTF-8"?>
<svg xmlns="http://www.w3.org/2000/svg" version="1.1" width="300" height="300" viewBox="0 0 300 300"><rect x="0" y="0" width="300" height="300" fill="#ffffff"/><g transform="scale(8.571)"><g transform="translate(1,1)"><path fill-rule="evenodd" d="M8 0L8 1L11 1L11 3L10 3L10 2L9 2L9 3L10 3L10 5L9 5L9 6L8 6L8 8L9 8L9 9L7 9L7 8L6 8L6 9L7 9L7 10L5 10L5 12L4 12L4 13L5 13L5 14L3 14L3 13L2 13L2 12L3 12L3 11L1 11L1 10L3 10L3 9L5 9L5 8L3 8L3 9L2 9L2 8L0 8L0 13L1 13L1 15L0 15L0 16L1 16L1 17L0 17L0 18L3 18L3 20L2 20L2 21L3 21L3 23L2 23L2 24L1 24L1 19L0 19L0 25L2 25L2 24L5 24L5 25L7 25L7 24L5 24L5 23L4 23L4 22L6 22L6 23L7 23L7 22L8 22L8 24L9 24L9 25L8 25L8 26L9 26L9 27L10 27L10 28L12 28L12 27L14 27L14 26L15 26L15 28L14 28L14 29L11 29L11 31L10 31L10 29L9 29L9 28L8 28L8 30L9 30L9 31L8 31L8 33L11 33L11 31L12 31L12 33L16 33L16 30L15 30L15 29L16 29L16 28L17 28L17 29L18 29L18 30L19 30L19 31L18 31L18 32L19 32L19 31L20 31L20 30L21 30L21 31L22 31L22 33L23 33L23 32L24 32L24 33L26 33L26 32L27 32L27 31L28 31L28 32L29 32L29 30L28 30L28 29L29 29L29 24L31 24L31 25L30 25L30 26L32 26L32 24L31 24L31 23L33 23L33 22L32 22L32 21L30 21L30 20L33 20L33 15L32 15L32 16L31 16L31 15L30 15L30 12L31 12L31 13L33 13L33 12L31 12L31 11L30 11L30 10L29 10L29 9L28 9L28 10L26 10L26 9L27 9L27 8L26 8L26 9L25 9L25 6L24 6L24 5L23 5L23 4L25 4L25 1L24 1L24 3L23 3L23 4L22 4L22 2L23 2L23 0L20 0L20 1L19 1L19 2L18 2L18 0L17 0L17 2L18 2L18 3L17 3L17 6L16 6L16 7L17 7L17 6L18 6L18 8L15 8L15 5L16 5L16 3L15 3L15 2L16 2L16 0L13 0L13 1L12 1L12 0ZM21 1L21 2L19 2L19 4L18 4L18 5L19 5L19 7L20 7L20 8L19 8L19 9L15 9L15 11L16 11L16 12L15 12L15 13L13 13L13 12L14 12L14 9L12 9L12 6L13 6L13 8L14 8L14 6L13 6L13 5L12 5L12 6L11 6L11 5L10 5L10 6L9 6L9 7L10 7L10 9L9 9L9 10L10 10L10 11L8 11L8 10L7 10L7 11L6 11L6 12L7 12L7 13L6 13L6 14L7 14L7 13L8 13L8 12L11 12L11 16L12 16L12 15L14 15L14 14L16 14L16 15L15 15L15 16L13 16L13 17L12 17L12 18L11 18L11 17L10 17L10 16L9 16L9 17L8 17L8 18L9 18L9 19L8 19L8 20L7 20L7 19L6 19L6 20L5 20L5 19L4 19L4 20L3 20L3 21L6 21L6 22L7 22L7 21L9 21L9 24L10 24L10 25L9 25L9 26L10 26L10 27L11 27L11 26L13 26L13 25L11 25L11 24L10 24L10 22L12 22L12 23L13 23L13 22L12 22L12 21L13 21L13 19L12 19L12 18L15 18L15 19L14 19L14 25L15 25L15 26L16 26L16 27L17 27L17 28L18 28L18 29L19 29L19 30L20 30L20 29L21 29L21 30L22 30L22 31L23 31L23 30L22 30L22 28L24 28L24 27L22 27L22 26L24 26L24 24L28 24L28 23L30 23L30 21L29 21L29 20L30 20L30 19L32 19L32 18L31 18L31 16L30 16L30 15L29 15L29 16L30 16L30 17L29 17L29 18L28 18L28 15L25 15L25 14L29 14L29 11L28 11L28 13L25 13L25 11L26 11L26 12L27 12L27 11L26 11L26 10L25 10L25 9L24 9L24 8L23 8L23 9L24 9L24 10L25 10L25 11L24 11L24 14L22 14L22 13L23 13L23 11L22 11L22 10L19 10L19 9L22 9L22 6L21 6L21 7L20 7L20 5L19 5L19 4L21 4L21 2L22 2L22 1ZM12 2L12 4L14 4L14 5L15 5L15 4L14 4L14 3L13 3L13 2ZM10 6L10 7L11 7L11 6ZM23 6L23 7L24 7L24 6ZM32 8L32 9L31 9L31 10L32 10L32 11L33 11L33 10L32 10L32 9L33 9L33 8ZM10 9L10 10L11 10L11 9ZM12 10L12 11L13 11L13 10ZM17 10L17 12L18 12L18 13L19 13L19 14L17 14L17 15L16 15L16 16L15 16L15 17L16 17L16 16L17 16L17 15L18 15L18 17L17 17L17 18L16 18L16 19L15 19L15 20L16 20L16 22L15 22L15 23L16 23L16 24L17 24L17 25L16 25L16 26L17 26L17 27L19 27L19 28L21 28L21 26L20 26L20 25L21 25L21 24L19 24L19 25L18 25L18 22L19 22L19 21L20 21L20 20L19 20L19 19L20 19L20 18L21 18L21 17L20 17L20 18L18 18L18 17L19 17L19 16L21 16L21 15L22 15L22 17L25 17L25 18L22 18L22 19L23 19L23 20L24 20L24 21L22 21L22 22L21 22L21 23L22 23L22 22L23 22L23 23L24 23L24 21L25 21L25 22L26 22L26 23L28 23L28 22L29 22L29 21L28 21L28 20L29 20L29 19L28 19L28 18L27 18L27 16L26 16L26 17L25 17L25 15L24 15L24 16L23 16L23 15L22 15L22 14L21 14L21 15L20 15L20 13L21 13L21 12L20 12L20 13L19 13L19 12L18 12L18 11L19 11L19 10ZM7 11L7 12L8 12L8 11ZM9 13L9 14L8 14L8 15L6 15L6 16L5 16L5 15L1 15L1 16L2 16L2 17L3 17L3 18L7 18L7 17L6 17L6 16L8 16L8 15L10 15L10 13ZM12 13L12 14L13 14L13 13ZM10 18L10 19L9 19L9 20L10 20L10 21L12 21L12 19L11 19L11 18ZM26 18L26 19L27 19L27 18ZM17 19L17 20L18 20L18 19ZM6 20L6 21L7 21L7 20ZM26 20L26 22L28 22L28 21L27 21L27 20ZM10 25L10 26L11 26L11 25ZM17 25L17 26L18 26L18 25ZM25 25L25 28L28 28L28 25ZM26 26L26 27L27 27L27 26ZM30 27L30 28L31 28L31 29L30 29L30 30L31 30L31 31L30 31L30 32L33 32L33 28L31 28L31 27ZM25 29L25 31L24 31L24 32L25 32L25 31L27 31L27 29ZM12 30L12 31L13 31L13 32L14 32L14 31L15 31L15 30ZM9 31L9 32L10 32L10 31ZM0 0L0 7L7 7L7 0ZM1 1L1 6L6 6L6 1ZM2 2L2 5L5 5L5 2ZM26 0L26 7L33 7L33 0ZM27 1L27 6L32 6L32 1ZM28 2L28 5L31 5L31 2ZM0 26L0 33L7 33L7 26ZM1 27L1 32L6 32L6 27ZM2 28L2 31L5 31L5 28Z" fill="#198754"/></g></g></svg>
