<?xml version="1.0" encoding="UTF-8"?>
<svg xmlns="http://www.w3.org/2000/svg" version="1.1" width="300" height="300" viewBox="0 0 300 300"><rect x="0" y="0" width="300" height="300" fill="#ffffff"/><g transform="scale(8.571)"><g transform="translate(1,1)"><path fill-rule="evenodd" d="M9 0L9 1L10 1L10 2L8 2L8 3L9 3L9 4L10 4L10 5L9 5L9 6L8 6L8 8L4 8L4 11L5 11L5 10L6 10L6 11L8 11L8 13L7 13L7 12L6 12L6 13L5 13L5 14L4 14L4 12L3 12L3 11L2 11L2 10L0 10L0 12L1 12L1 14L2 14L2 13L3 13L3 15L0 15L0 16L1 16L1 17L0 17L0 18L1 18L1 19L3 19L3 20L2 20L2 21L1 21L1 22L0 22L0 23L1 23L1 24L0 24L0 25L1 25L1 24L4 24L4 25L5 25L5 23L7 23L7 24L6 24L6 25L7 25L7 24L9 24L9 25L8 25L8 29L9 29L9 25L10 25L10 21L8 21L8 22L9 22L9 23L7 23L7 22L6 22L6 21L7 21L7 20L12 20L12 21L11 21L11 23L12 23L12 24L11 24L11 26L10 26L10 27L11 27L11 28L10 28L10 29L11 29L11 30L8 30L8 33L12 33L12 32L14 32L14 33L15 33L15 32L16 32L16 31L15 31L15 30L14 30L14 29L13 29L13 28L12 28L12 27L11 27L11 26L12 26L12 24L14 24L14 26L13 26L13 27L14 27L14 26L15 26L15 24L16 24L16 23L17 23L17 26L16 26L16 27L17 27L17 30L18 30L18 31L17 31L17 33L23 33L23 30L24 30L24 33L25 33L25 32L26 32L26 33L28 33L28 32L30 32L30 30L29 30L29 29L30 29L30 27L29 27L29 26L30 26L30 23L31 23L31 24L32 24L32 23L33 23L33 20L32 20L32 19L33 19L33 16L32 16L32 15L33 15L33 12L32 12L32 11L33 11L33 9L32 9L32 11L31 11L31 12L32 12L32 14L31 14L31 13L30 13L30 14L28 14L28 13L27 13L27 12L26 12L26 14L28 14L28 15L25 15L25 11L23 11L23 10L22 10L22 7L23 7L23 9L24 9L24 10L25 10L25 9L26 9L26 11L27 11L27 10L28 10L28 9L27 9L27 8L24 8L24 7L25 7L25 5L24 5L24 4L23 4L23 3L24 3L24 1L25 1L25 0L21 0L21 1L19 1L19 0L18 0L18 1L17 1L17 0L16 0L16 1L15 1L15 0L12 0L12 1L10 1L10 0ZM13 1L13 2L14 2L14 1ZM16 1L16 2L17 2L17 3L19 3L19 1L18 1L18 2L17 2L17 1ZM21 1L21 4L19 4L19 5L21 5L21 7L22 7L22 6L23 6L23 7L24 7L24 6L23 6L23 5L22 5L22 3L23 3L23 2L22 2L22 1ZM11 2L11 3L12 3L12 4L11 4L11 5L10 5L10 6L9 6L9 7L10 7L10 6L11 6L11 8L12 8L12 10L10 10L10 8L9 8L9 9L6 9L6 10L10 10L10 11L9 11L9 14L11 14L11 13L12 13L12 12L13 12L13 13L14 13L14 14L13 14L13 15L14 15L14 14L15 14L15 15L18 15L18 14L19 14L19 17L17 17L17 16L15 16L15 17L17 17L17 18L14 18L14 16L12 16L12 15L11 15L11 16L10 16L10 15L8 15L8 16L7 16L7 15L6 15L6 14L7 14L7 13L6 13L6 14L5 14L5 15L4 15L4 17L3 17L3 16L2 16L2 18L3 18L3 19L4 19L4 21L2 21L2 22L1 22L1 23L2 23L2 22L3 22L3 23L4 23L4 22L5 22L5 19L6 19L6 20L7 20L7 19L8 19L8 18L9 18L9 17L11 17L11 16L12 16L12 18L10 18L10 19L12 19L12 20L13 20L13 21L14 21L14 22L13 22L13 23L14 23L14 22L15 22L15 23L16 23L16 22L17 22L17 21L15 21L15 19L20 19L20 20L19 20L19 23L18 23L18 24L19 24L19 26L18 26L18 28L19 28L19 31L18 31L18 32L20 32L20 31L21 31L21 30L20 30L20 29L21 29L21 28L19 28L19 27L20 27L20 25L21 25L21 23L22 23L22 26L21 26L21 27L23 27L23 24L24 24L24 23L26 23L26 24L27 24L27 23L28 23L28 24L29 24L29 23L28 23L28 22L29 22L29 20L28 20L28 19L29 19L29 18L30 18L30 22L32 22L32 21L31 21L31 18L32 18L32 17L31 17L31 14L30 14L30 16L29 16L29 15L28 15L28 18L26 18L26 16L25 16L25 18L24 18L24 16L23 16L23 15L24 15L24 13L23 13L23 12L22 12L22 13L23 13L23 14L20 14L20 12L19 12L19 11L22 11L22 10L21 10L21 9L19 9L19 8L20 8L20 6L19 6L19 8L17 8L17 7L18 7L18 4L15 4L15 5L14 5L14 4L13 4L13 3L12 3L12 2ZM13 5L13 6L12 6L12 8L14 8L14 10L13 10L13 11L14 11L14 10L16 10L16 11L17 11L17 12L16 12L16 13L15 13L15 14L17 14L17 12L18 12L18 11L19 11L19 9L15 9L15 8L16 8L16 7L17 7L17 5L15 5L15 6L14 6L14 5ZM13 6L13 7L14 7L14 6ZM15 6L15 7L16 7L16 6ZM0 8L0 9L3 9L3 8ZM30 8L30 9L29 9L29 10L31 10L31 8ZM1 11L1 12L2 12L2 11ZM11 11L11 12L12 12L12 11ZM28 11L28 12L30 12L30 11ZM21 15L21 16L20 16L20 18L21 18L21 20L20 20L20 23L21 23L21 21L22 21L22 20L24 20L24 22L25 22L25 20L26 20L26 23L27 23L27 22L28 22L28 21L27 21L27 20L26 20L26 19L25 19L25 20L24 20L24 19L23 19L23 18L22 18L22 15ZM5 16L5 17L7 17L7 16ZM8 16L8 17L9 17L9 16ZM30 17L30 18L31 18L31 17ZM4 18L4 19L5 19L5 18ZM6 18L6 19L7 19L7 18ZM13 18L13 19L14 19L14 18ZM22 22L22 23L23 23L23 22ZM25 25L25 28L28 28L28 25ZM31 25L31 27L32 27L32 28L33 28L33 25ZM26 26L26 27L27 27L27 26ZM11 28L11 29L12 29L12 28ZM22 28L22 29L24 29L24 30L25 30L25 29L24 29L24 28ZM26 29L26 32L27 32L27 31L28 31L28 29ZM32 29L32 31L31 31L31 33L33 33L33 32L32 32L32 31L33 31L33 29ZM13 30L13 31L14 31L14 30ZM9 31L9 32L10 32L10 31ZM11 31L11 32L12 32L12 31ZM0 0L0 7L7 7L7 0ZM1 1L1 6L6 6L6 1ZM2 2L2 5L5 5L5 2ZM26 0L26 7L33 7L33 0ZM27 1L27 6L32 6L32 1ZM28 2L28 5L31 5L31 2ZM0 26L0 33L7 33L7 26ZM1 27L1 32L6 32L6 27ZM2 28L2 31L5 31L5 28Z" fill="#198754"/></g></g></svg>
