<?xml version="1.0" encoding="UTF-8"?>
<svg xmlns="http://www.w3.org/2000/svg" version="1.1" width="300" height="300" viewBox="0 0 300 300"><rect x="0" y="0" width="300" height="300" fill="#ffffff"/><g transform="scale(8.571)"><g transform="translate(1,1)"><path fill-rule="evenodd" d="M8 0L8 1L9 1L9 2L8 2L8 5L9 5L9 4L11 4L11 5L10 5L10 10L9 10L9 8L8 8L8 9L7 9L7 8L6 8L6 9L4 9L4 8L0 8L0 9L1 9L1 10L0 10L0 14L1 14L1 15L2 15L2 13L3 13L3 15L4 15L4 17L3 17L3 16L2 16L2 17L3 17L3 18L4 18L4 17L5 17L5 18L6 18L6 19L5 19L5 20L4 20L4 19L2 19L2 18L1 18L1 19L2 19L2 21L3 21L3 22L2 22L2 23L1 23L1 24L0 24L0 25L1 25L1 24L2 24L2 25L4 25L4 23L8 23L8 22L10 22L10 21L11 21L11 20L12 20L12 19L11 19L11 20L10 20L10 19L9 19L9 20L8 20L8 19L7 19L7 18L8 18L8 17L9 17L9 16L10 16L10 18L11 18L11 16L12 16L12 17L13 17L13 16L12 16L12 14L13 14L13 15L14 15L14 18L13 18L13 21L18 21L18 20L19 20L19 22L20 22L20 23L21 23L21 21L22 21L22 20L24 20L24 19L22 19L22 20L21 20L21 17L22 17L22 18L25 18L25 17L24 17L24 16L22 16L22 15L21 15L21 14L20 14L20 13L19 13L19 16L20 16L20 20L19 20L19 19L17 19L17 18L18 18L18 17L17 17L17 18L15 18L15 17L16 17L16 15L17 15L17 11L16 11L16 12L14 12L14 14L13 14L13 12L12 12L12 13L11 13L11 11L14 11L14 10L17 10L17 8L18 8L18 9L19 9L19 10L20 10L20 9L19 9L19 8L20 8L20 7L21 7L21 6L22 6L22 7L23 7L23 11L24 11L24 12L22 12L22 14L23 14L23 13L24 13L24 14L25 14L25 15L26 15L26 20L25 20L25 22L24 22L24 21L23 21L23 23L22 23L22 25L23 25L23 27L20 27L20 25L21 25L21 24L20 24L20 25L19 25L19 24L17 24L17 23L16 23L16 25L15 25L15 26L14 26L14 25L13 25L13 26L12 26L12 24L15 24L15 22L14 22L14 23L9 23L9 25L8 25L8 24L5 24L5 25L8 25L8 26L10 26L10 28L9 28L9 29L8 29L8 33L9 33L9 30L10 30L10 33L14 33L14 32L13 32L13 30L14 30L14 29L12 29L12 28L14 28L14 27L15 27L15 28L16 28L16 29L15 29L15 31L17 31L17 33L18 33L18 31L19 31L19 32L20 32L20 31L21 31L21 29L25 29L25 30L24 30L24 32L25 32L25 33L26 33L26 32L27 32L27 33L28 33L28 32L30 32L30 33L31 33L31 32L30 32L30 29L31 29L31 28L33 28L33 27L31 27L31 26L30 26L30 24L29 24L29 23L28 23L28 24L26 24L26 23L27 23L27 22L28 22L28 21L26 21L26 20L29 20L29 21L30 21L30 22L31 22L31 24L32 24L32 25L33 25L33 24L32 24L32 23L33 23L33 21L31 21L31 20L30 20L30 18L31 18L31 19L32 19L32 20L33 20L33 19L32 19L32 18L33 18L33 16L31 16L31 14L32 14L32 13L30 13L30 14L28 14L28 15L27 15L27 14L26 14L26 13L25 13L25 10L26 10L26 11L27 11L27 13L29 13L29 12L28 12L28 11L31 11L31 12L32 12L32 11L33 11L33 8L32 8L32 9L31 9L31 8L28 8L28 9L26 9L26 8L25 8L25 10L24 10L24 7L25 7L25 2L24 2L24 1L25 1L25 0L23 0L23 1L21 1L21 0L20 0L20 1L21 1L21 2L23 2L23 3L22 3L22 4L24 4L24 7L23 7L23 5L18 5L18 4L17 4L17 3L16 3L16 2L18 2L18 3L19 3L19 2L18 2L18 1L19 1L19 0L18 0L18 1L16 1L16 0L15 0L15 1L16 1L16 2L15 2L15 3L14 3L14 5L13 5L13 3L12 3L12 4L11 4L11 2L14 2L14 0L12 0L12 1L11 1L11 0L10 0L10 1L9 1L9 0ZM20 3L20 4L21 4L21 3ZM16 4L16 5L14 5L14 6L13 6L13 5L12 5L12 6L11 6L11 8L12 8L12 6L13 6L13 8L14 8L14 9L15 9L15 7L16 7L16 6L17 6L17 7L18 7L18 6L17 6L17 4ZM8 6L8 7L9 7L9 6ZM14 6L14 7L15 7L15 6ZM19 6L19 7L20 7L20 6ZM21 8L21 10L22 10L22 8ZM2 9L2 10L1 10L1 13L2 13L2 12L3 12L3 11L2 11L2 10L3 10L3 9ZM6 9L6 10L7 10L7 11L5 11L5 10L4 10L4 11L5 11L5 12L4 12L4 13L6 13L6 14L4 14L4 15L5 15L5 16L7 16L7 17L6 17L6 18L7 18L7 17L8 17L8 16L9 16L9 15L10 15L10 16L11 16L11 15L10 15L10 14L11 14L11 13L10 13L10 14L9 14L9 12L8 12L8 16L7 16L7 15L6 15L6 14L7 14L7 13L6 13L6 12L7 12L7 11L8 11L8 10L7 10L7 9ZM11 9L11 10L12 10L12 9ZM28 9L28 10L27 10L27 11L28 11L28 10L31 10L31 11L32 11L32 10L31 10L31 9ZM19 11L19 12L21 12L21 11ZM15 13L15 14L14 14L14 15L16 15L16 13ZM20 15L20 16L21 16L21 15ZM28 15L28 16L30 16L30 15ZM0 16L0 17L1 17L1 16ZM27 17L27 18L28 18L28 17ZM31 17L31 18L32 18L32 17ZM6 19L6 20L5 20L5 22L8 22L8 21L6 21L6 20L7 20L7 19ZM15 19L15 20L16 20L16 19ZM3 20L3 21L4 21L4 20ZM9 20L9 21L10 21L10 20ZM20 20L20 21L21 21L21 20ZM0 21L0 22L1 22L1 21ZM3 22L3 23L2 23L2 24L3 24L3 23L4 23L4 22ZM25 22L25 23L26 23L26 22ZM10 24L10 26L11 26L11 28L12 28L12 26L11 26L11 24ZM16 25L16 26L15 26L15 27L16 27L16 28L17 28L17 31L18 31L18 29L19 29L19 31L20 31L20 29L21 29L21 28L20 28L20 27L19 27L19 28L18 28L18 27L17 27L17 25ZM25 25L25 28L28 28L28 25ZM13 26L13 27L14 27L14 26ZM26 26L26 27L27 27L27 26ZM29 26L29 29L28 29L28 31L27 31L27 32L28 32L28 31L29 31L29 29L30 29L30 26ZM23 27L23 28L24 28L24 27ZM10 29L10 30L12 30L12 29ZM26 29L26 30L27 30L27 29ZM32 29L32 30L33 30L33 29ZM11 31L11 32L12 32L12 31ZM22 31L22 32L21 32L21 33L23 33L23 31ZM25 31L25 32L26 32L26 31ZM32 31L32 32L33 32L33 31ZM0 0L0 7L7 7L7 0ZM1 1L1 6L6 6L6 1ZM2 2L2 5L5 5L5 2ZM26 0L26 7L33 7L33 0ZM27 1L27 6L32 6L32 1ZM28 2L28 5L31 5L31 2ZM0 26L0 33L7 33L7 26ZM1 27L1 32L6 32L6 27ZM2 28L2 31L5 31L5 28Z" fill="#198754"/></g></g></svg>
